<svg width="375" height="49" viewBox="0 0 375 49" fill="none" xmlns="http://www.w3.org/2000/svg">
<g clip-path="url(#clip0_1_198)">
<path d="M375 0.460815H-25.641V48.5377H375V0.460815Z" fill="#ED1B23"/>
<path fill-rule="evenodd" clip-rule="evenodd" d="M283.059 48.1053C276.829 32.613 280.477 14.0504 291.399 0.460815H375.462L376.068 1.04459V48.5377H283.205L283.059 48.1053ZM257.859 48.5377C253.302 32.4956 254.97 15.4041 262.551 0.460815H266.805C259.592 15.5189 258.141 32.5485 262.708 48.5377H257.859ZM270.004 48.5377C266.714 40.7923 265.342 32.4153 265.997 24.0704C266.651 15.7256 269.315 7.64224 273.776 0.460815H277.716C268.309 14.9261 266.637 33.3481 273.922 48.5377H270.004Z" fill="#FEFEFE"/>
<path fill-rule="evenodd" clip-rule="evenodd" d="M216.854 16.7404H258.663C261.726 16.7585 264.657 17.609 266.823 19.1088C268.989 20.6085 270.218 22.6374 270.244 24.7583C270.247 26.8947 269.033 28.9456 266.864 30.4656C264.696 31.9856 261.748 32.8519 258.663 32.8762H216.854C213.744 32.8721 210.763 32.0145 208.565 30.4913C206.367 28.9681 205.131 26.9037 205.128 24.7505C205.163 22.6143 206.415 20.5739 208.61 19.0727C210.806 17.5714 213.768 16.7305 216.854 16.7327V16.7404Z" fill="#23303F"/>
<path d="M213.692 27.984V21.6375H216.395C217.142 21.6313 217.875 21.7729 218.509 22.0457C218.813 22.2003 219.055 22.4058 219.213 22.6429C219.37 22.88 219.438 23.141 219.41 23.4013C219.4 23.6587 219.297 23.9103 219.11 24.133C218.895 24.3659 218.58 24.5463 218.209 24.649C218.609 24.7673 218.967 24.9462 219.255 25.1727C219.428 25.4698 219.53 25.7847 219.555 26.1047C219.609 26.3559 219.569 26.6126 219.439 26.8501C219.308 27.0875 219.091 27.2976 218.81 27.4602C218.234 27.8183 217.48 28.0064 216.707 27.984H213.692ZM215.494 25.1727V26.9442H216.685C217.008 26.9368 217.321 26.8646 217.586 26.7363C217.73 26.6284 217.73 26.4282 217.73 26.1047C217.764 25.8589 217.715 25.611 217.586 25.3807C217.376 25.2526 217.109 25.179 216.829 25.1727H215.494ZM215.494 24.3409H216.395C216.723 24.3383 217.042 24.2657 217.308 24.133C217.471 23.9424 217.574 23.7296 217.608 23.5091C217.627 23.2822 217.52 23.0588 217.308 22.8852C217.189 22.8042 217.045 22.7428 216.887 22.7054C216.729 22.6681 216.561 22.6558 216.395 22.6696H215.494V24.3409ZM226.775 21.6375V25.9429C226.775 26.6669 226.631 27.1907 226.03 27.4834C225.379 27.8232 224.586 28.0071 223.771 28.0071C222.956 28.0071 222.163 27.8232 221.513 27.4834C221.197 27.2947 220.95 27.0565 220.793 26.7886C220.636 26.5207 220.574 26.2308 220.612 25.9429V21.676H222.414V25.9429C222.384 26.2353 222.489 26.5267 222.714 26.7748C222.853 26.8826 223.025 26.967 223.218 27.0218C223.411 27.0765 223.619 27.1 223.827 27.0905C224.156 27.1025 224.48 27.0252 224.728 26.8749C224.89 26.7486 225.014 26.601 225.093 26.4409C225.171 26.2808 225.202 26.1115 225.184 25.9429V21.676L226.775 21.6375ZM230.836 24.3409H230.992L232.494 21.6375H234.485L231.77 25.6965V28.0071H230.124V25.6118L227.565 21.6606H229.523L230.836 24.3409ZM244.375 27.984H242.573L239.714 23.9173V27.984H237.911V21.6375H239.714L242.573 25.6965V21.6375H244.375V27.984ZM251.74 25.6734C251.791 25.9714 251.751 26.2734 251.623 26.56C251.494 26.8466 251.28 27.1113 250.995 27.337C250.677 27.5514 250.298 27.7176 249.883 27.8251C249.467 27.9325 249.023 27.9787 248.581 27.9609C248.168 27.9666 247.758 27.9142 247.376 27.807C246.993 27.6997 246.646 27.5398 246.356 27.337C246.046 27.1188 245.805 26.8579 245.65 26.5714C245.495 26.2848 245.428 25.9789 245.454 25.6734V23.8942C245.43 23.5736 245.497 23.2528 245.651 22.9502C245.806 22.6475 246.045 22.3689 246.356 22.1304C246.646 21.9276 246.993 21.7677 247.376 21.6604C247.758 21.5532 248.168 21.5009 248.581 21.5065C249.023 21.4887 249.467 21.535 249.883 21.6424C250.298 21.7498 250.677 21.916 250.995 22.1304C251.281 22.376 251.494 22.6582 251.621 22.9608C251.749 23.2635 251.79 23.5807 251.74 23.8942V25.6734ZM250.06 23.9173C250.091 23.7334 250.068 23.547 249.991 23.3695C249.915 23.1921 249.787 23.0273 249.615 22.8852C249.493 22.7643 249.323 22.6703 249.126 22.6143C248.929 22.5583 248.712 22.5427 248.503 22.5694C248.305 22.5648 248.109 22.5907 247.928 22.6453C247.747 22.7 247.586 22.782 247.457 22.8852C247.236 23.2069 247.132 23.5614 247.157 23.9173V25.6965C247.151 26.0537 247.254 26.4079 247.457 26.7363C247.588 26.8379 247.75 26.9187 247.93 26.9732C248.11 27.0277 248.306 27.0546 248.503 27.052C248.712 27.0733 248.926 27.0552 249.121 26.9997C249.317 26.9441 249.488 26.8532 249.615 26.7363C249.941 26.4385 250.099 26.0689 250.06 25.6965V23.9173ZM259.094 25.6965L260.14 21.6375H261.797L260.073 27.984H258.415L257.214 24.133L255.856 27.984H254.21L252.397 21.6375H254.21L255.111 25.6965H255.256L256.457 21.6375H257.814L259.094 25.6965Z" fill="#FEFEFE"/>
<path d="M83.6589 19.9259C83.674 19.7923 83.6494 19.6579 83.5866 19.5309C83.5238 19.4038 83.4241 19.2867 83.2934 19.1864C82.958 18.9391 82.5472 18.7447 82.0898 18.6166C81.031 18.4403 80.0439 18.1048 79.2013 17.6346C78.9073 17.4286 78.6801 17.183 78.5342 16.9137C78.3883 16.6443 78.327 16.3572 78.3544 16.0707C78.3312 15.7588 78.4178 15.4476 78.6069 15.163C78.7961 14.8783 79.0824 14.6285 79.442 14.4342C80.2132 13.9878 81.2025 13.7542 82.2146 13.7795C82.7249 13.7695 83.2328 13.8299 83.7078 13.957C84.1828 14.0841 84.615 14.2752 84.9784 14.519C85.3336 14.7332 85.6152 14.9979 85.8032 15.2943C85.9912 15.5908 86.0809 15.9117 86.066 16.2344L85.9501 16.3132H83.7926C83.7792 15.9866 83.6103 15.6718 83.3112 15.4161C83.0705 15.1676 82.7139 15.0888 82.1077 15.0888C81.7158 15.0808 81.3329 15.1691 81.0289 15.3373C80.8972 15.4359 80.7967 15.5519 80.7338 15.6781C80.6709 15.8043 80.647 15.938 80.6634 16.0707C80.6532 16.1989 80.6922 16.3266 80.7766 16.4414C80.861 16.5562 80.9879 16.6541 81.1448 16.7254C81.5834 16.9712 82.0693 17.1752 82.5891 17.3315C83.5871 17.5021 84.5065 17.8397 85.2636 18.3135C85.8286 18.7755 86.1433 19.3554 86.1552 19.9562C86.1806 20.2683 86.095 20.58 85.9057 20.8649C85.7163 21.1498 85.4288 21.3995 85.0675 21.5928C84.2995 22.0388 83.3131 22.2724 82.3038 22.2474C81.2027 22.2555 80.1338 21.9954 79.2904 21.514C78.8672 21.2724 78.5307 20.9682 78.3067 20.6247C78.0826 20.2812 77.977 19.9074 77.9977 19.5319H80.4049C80.3479 19.9045 80.4733 20.2794 80.7615 20.5987C80.9579 20.7179 81.1882 20.8085 81.4382 20.8648C81.6881 20.9211 81.9524 20.9419 82.2146 20.926C82.4099 20.9372 82.6065 20.9209 82.7921 20.8782C82.9777 20.8354 83.1483 20.7671 83.2934 20.6775C83.4243 20.5785 83.5241 20.4624 83.587 20.3363C83.6498 20.2103 83.6743 20.0768 83.6589 19.9441V19.9259ZM93.9025 18.4469H89.9263V20.8291H94.6246V22.0414H87.4925V13.8644H94.6246V15.1676H89.9263V17.2224H93.9025V18.4469ZM101.258 20.3381H98.1194L97.3973 22.0535H95.106L98.4849 13.8644H100.892L104.298 22.0535H101.98L101.258 20.3381ZM98.583 19.0227H100.732L99.6528 16.1556L98.583 19.0227ZM110.538 19.9259C110.555 19.7927 110.531 19.6586 110.47 19.5316C110.409 19.4046 110.311 19.2872 110.182 19.1864C109.845 18.9404 109.434 18.7462 108.978 18.6166C107.917 18.4402 106.927 18.1047 106.081 17.6346C105.788 17.4283 105.562 17.1825 105.418 16.9132C105.273 16.6438 105.214 16.3568 105.243 16.0707C105.218 15.7592 105.303 15.4482 105.49 15.1635C105.678 14.8789 105.963 14.6288 106.321 14.4342C107.093 13.9878 108.082 13.7542 109.094 13.7795C109.606 13.7687 110.115 13.8286 110.592 13.9558C111.069 14.0829 111.502 14.2745 111.867 14.519C112.221 14.734 112.501 14.9988 112.689 15.2951C112.877 15.5913 112.967 15.9119 112.954 16.2344V16.3132H110.663C110.65 15.9866 110.481 15.6718 110.182 15.4161C110.043 15.2929 109.858 15.1974 109.646 15.1398C109.434 15.0821 109.203 15.0645 108.978 15.0888C108.586 15.093 108.206 15.1798 107.89 15.3373C107.76 15.4367 107.661 15.5529 107.598 15.6788C107.536 15.8048 107.511 15.9381 107.525 16.0707C107.517 16.1994 107.557 16.3273 107.643 16.442C107.729 16.5567 107.857 16.6543 108.015 16.7254C108.454 16.9712 108.94 17.1752 109.46 17.3315C110.458 17.5021 111.377 17.8397 112.134 18.3135C112.43 18.5349 112.657 18.7944 112.802 19.0765C112.948 19.3587 113.009 19.6578 112.981 19.9562C113.004 20.2681 112.918 20.5793 112.728 20.864C112.539 21.1486 112.253 21.3985 111.893 21.5928C111.517 21.8204 111.079 21.9954 110.603 22.1077C110.127 22.22 109.624 22.2675 109.121 22.2474C108.058 22.2538 107.029 21.9925 106.232 21.514C105.788 21.2864 105.434 20.9871 105.202 20.6432C104.97 20.2993 104.867 19.9215 104.904 19.544H107.311C107.256 19.9173 107.385 20.2925 107.676 20.6109C107.872 20.7296 108.1 20.8199 108.349 20.8762C108.597 20.9325 108.86 20.9536 109.121 20.9382C109.317 20.9575 109.517 20.9454 109.705 20.9028C109.894 20.8603 110.065 20.7885 110.205 20.6932C110.345 20.5979 110.451 20.4816 110.513 20.3537C110.576 20.2257 110.593 20.0896 110.565 19.9562L110.538 19.9259ZM122.476 19.1015C122.545 19.9325 122.158 20.7514 121.388 21.3988C120.58 21.9294 119.498 22.2232 118.375 22.2171C117.217 22.2247 116.098 21.9321 115.246 21.3988C114.476 20.7514 114.088 19.9325 114.158 19.1015V16.8103C114.11 16.0071 114.497 15.22 115.246 14.5978C115.633 14.3252 116.101 14.1114 116.619 13.9703C117.137 13.8293 117.693 13.7643 118.25 13.7795C118.828 13.7567 119.408 13.8178 119.949 13.9589C120.49 14.1 120.98 14.3178 121.388 14.5978C122.137 15.22 122.523 16.0071 122.476 16.8103V19.1015ZM120.185 16.8103C120.243 16.3496 120.073 15.8888 119.703 15.501C119.541 15.3473 119.319 15.2274 119.063 15.1546C118.806 15.0818 118.525 15.059 118.25 15.0888C117.996 15.0682 117.738 15.0958 117.505 15.1685C117.272 15.2412 117.073 15.3563 116.93 15.501C116.556 15.8877 116.387 16.3494 116.449 16.8103V19.1015C116.374 19.5917 116.544 20.0848 116.93 20.5017C117.11 20.6395 117.333 20.7477 117.584 20.8181C117.834 20.8885 118.104 20.9192 118.375 20.9079C118.626 20.9075 118.874 20.8712 119.103 20.8012C119.332 20.7312 119.536 20.6292 119.703 20.5017C120.086 20.0837 120.255 19.5915 120.185 19.1015V16.8103ZM132.479 22.0535H130.152L126.416 16.8103V22.0535H124.009V13.8644H126.416L129.982 19.1015H130.152V13.8644H132.443L132.479 22.0535ZM83.6678 31.4792C83.6829 31.3455 83.6583 31.2112 83.5955 31.0841C83.5327 30.9571 83.433 30.84 83.3023 30.7396C83.007 30.4551 82.5851 30.2426 82.0987 30.1335C81.0788 29.8929 80.1082 29.565 79.2102 29.1576C78.9072 28.9396 78.6751 28.6807 78.5292 28.3976C78.3832 28.1146 78.3267 27.8138 78.3633 27.5149C78.3634 27.2053 78.4605 26.8992 78.648 26.617C78.8355 26.3348 79.1092 26.083 79.4509 25.8783C80.2368 25.4575 81.226 25.2521 82.2236 25.3025C83.2296 25.292 84.2086 25.5239 84.9873 25.9571C85.345 26.1919 85.6266 26.475 85.8139 26.7881C86.0012 27.1013 86.0901 27.4376 86.0749 27.7755L85.959 27.8604H83.7926C83.8067 27.5305 83.6344 27.2095 83.3112 26.9633C83.1836 26.8274 83.0045 26.7174 82.7927 26.6449C82.5809 26.5724 82.3442 26.54 82.1077 26.5511C81.7038 26.5737 81.3234 26.6892 81.0289 26.8784C80.8972 26.9771 80.7967 27.0931 80.7338 27.2193C80.6709 27.3455 80.647 27.4791 80.6634 27.6119C80.6514 27.7402 80.6896 27.8684 80.7742 27.9834C80.8587 28.0984 80.9866 28.1961 81.1448 28.2665C81.5834 28.5124 82.0693 28.7163 82.5891 28.8727C83.5894 29.0425 84.5098 29.3825 85.2636 29.8607C85.8493 30.3121 86.1671 30.8955 86.1552 31.4973C86.1692 31.8084 86.0786 32.1176 85.8901 32.4013C85.7016 32.6849 85.4202 32.9355 85.0675 33.1339C84.2916 33.5657 83.3045 33.7822 82.3038 33.7401C81.2161 33.7763 80.1457 33.5438 79.2904 33.0854C78.8561 32.8381 78.5129 32.5251 78.2884 32.1715C78.064 31.8178 77.9644 31.4333 77.9977 31.0488H80.4049C80.3655 31.4206 80.4896 31.7919 80.7615 32.1156C80.9579 32.2348 81.1882 32.3254 81.4382 32.3817C81.6881 32.438 81.9524 32.4588 82.2146 32.4429C82.4099 32.4541 82.6065 32.4378 82.7921 32.395C82.9777 32.3523 83.1483 32.284 83.2934 32.1944C83.4243 32.0954 83.5241 31.9793 83.587 31.8532C83.6498 31.7271 83.6743 31.5937 83.6589 31.461L83.6678 31.4792ZM92.9486 31.8853H89.8104L89.0883 33.6067H86.7971L90.1759 25.4116H92.583L95.9619 33.6067H93.5459L92.9486 31.8853ZM90.274 30.576H92.4493L91.3617 27.7089L90.274 30.576ZM99.1892 32.2975H103.647V33.6067H96.898V25.4116H99.1892V32.2975ZM111.243 30.0001H107.142V32.2975H111.956V33.6067H104.824V25.4116H111.956V26.7269H107.142V28.7696H111.243V30.0001Z" fill="white"/>
<path d="M14.9573 34.1051V12.5587H24.017C27.162 12.5587 29.6905 13.0669 31.3881 14.0896C33.175 15.0183 34.0684 16.5429 34.0684 18.4818C34.1102 19.4406 33.7598 20.3878 33.0588 21.2111C32.3927 22.0096 31.3729 22.6332 30.1551 22.9868C30.8956 23.0759 31.6013 23.2733 32.2262 23.5662C32.8511 23.8591 33.3813 24.2411 33.7825 24.6872C34.56 25.6433 34.9753 26.7234 34.9887 27.8244C34.9887 29.8573 34.1489 31.4699 32.4513 32.4863C30.7537 33.5028 28.3503 34.0988 25.2053 34.0988L14.9573 34.1051ZM20.9971 24.637V30.8298H25.2232C25.7569 30.8554 26.2923 30.8003 26.7932 30.6682C27.2941 30.5362 27.7489 30.3303 28.1269 30.0644C28.756 29.4189 29.0524 28.6419 28.9668 27.8621C29.041 27.0378 28.7906 26.215 28.2431 25.484C27.9408 25.1905 27.5342 24.9579 27.0639 24.8092C26.5935 24.6606 26.0759 24.6012 25.5627 24.637H20.9971ZM20.9971 21.6692H24.2582C25.3096 21.6904 26.3378 21.4504 27.162 20.9915C27.8362 20.389 28.1787 19.6362 28.1269 18.8708C28.1729 18.4697 28.0998 18.0663 27.9122 17.6861C27.7245 17.3059 27.4265 16.9572 27.0369 16.6621C26.1913 16.1725 25.1101 15.9299 24.017 15.9845H20.9971V21.6692ZM45.1206 34.1365H39.2327V12.5587H45.1563L45.1206 34.1365ZM70.5128 30.9114C69.5781 31.9363 68.2946 32.7816 66.7781 33.371C64.8905 34.1582 62.7172 34.5419 60.5239 34.4753C59.0677 34.5254 57.6119 34.3708 56.2418 34.0207C54.8717 33.6705 53.615 33.1318 52.5453 32.4361C51.5182 31.6657 50.7217 30.7585 50.2029 29.768C49.6842 28.7775 49.4538 27.724 49.5254 26.6699V20.1068C49.5254 17.5971 50.4903 15.7147 52.4291 14.3406C53.4325 13.6556 54.6243 13.1215 55.9316 12.7708C57.2389 12.4202 58.6343 12.2605 60.0325 12.3014C63.4187 12.3014 66.0723 12.8975 67.7699 14.0018C69.4675 15.1061 70.2984 16.8818 70.4503 19.0213L70.3252 19.1092H64.7232C64.7261 18.1655 64.3039 17.2453 63.517 16.4802C63.0816 16.1931 62.5687 15.9702 62.0086 15.8247C61.4485 15.6792 60.8525 15.6141 60.2559 15.6332C59.5922 15.6263 58.9344 15.721 58.328 15.9106C57.7217 16.1002 57.1814 16.3802 56.7446 16.7312C55.8356 17.7126 55.4118 18.8767 55.5384 20.0441V26.6573C55.5384 28.182 55.9047 29.2863 56.7446 29.964C57.1956 30.348 57.7728 30.6492 58.4266 30.8416C59.0804 31.034 59.791 31.1118 60.4971 31.0683C61.4174 31.1225 62.3418 31.0056 63.1775 30.7295C63.7354 30.4743 64.1932 30.1248 64.5087 29.713V25.8919H60.4971V22.9303H70.5128V30.9114Z" fill="#FEFEFE"/>
</g>
<defs>
<clipPath id="clip0_1_198">
<rect width="375" height="48.0769" fill="white" transform="translate(0 0.460815)"/>
</clipPath>
</defs>
</svg>
