<svg width="22" height="23" viewBox="0 0 22 23" fill="none" xmlns="http://www.w3.org/2000/svg">
<path fill-rule="evenodd" clip-rule="evenodd" d="M10.7886 0C6.20978 0 2.49791 3.71187 2.49791 8.2907V9.04393C2.49791 9.78947 2.27723 10.5183 1.86367 11.1387L0.634934 12.9818C-0.791169 15.1209 0.297541 18.0286 2.7779 18.705C3.58623 18.9255 4.40138 19.112 5.22126 19.2645L5.22329 19.2699C6.04593 21.465 8.24464 23 10.7885 23C13.3324 23 15.5311 21.465 16.3538 19.2699L16.3558 19.2645C17.1757 19.112 17.9909 18.9255 18.7993 18.705C21.2797 18.0286 22.3684 15.1209 20.9423 12.9818L19.7135 11.1387C19.3 10.5183 19.0793 9.78947 19.0793 9.04393V8.2907C19.0793 3.71187 15.3674 0 10.7886 0ZM14.4006 19.5628C12.0011 19.8495 9.57592 19.8495 7.17648 19.5628C7.93704 20.6556 9.25988 21.3953 10.7885 21.3953C12.3172 21.3953 13.64 20.6556 14.4006 19.5628ZM4.10256 8.2907C4.10256 4.5981 7.096 1.60465 10.7886 1.60465C14.4812 1.60465 17.4747 4.5981 17.4747 8.2907V9.04393C17.4747 10.1063 17.7891 11.1448 18.3784 12.0288L19.6071 13.8719C20.4257 15.0997 19.8008 16.7686 18.3771 17.1569C13.4088 18.5119 8.16838 18.5119 3.20011 17.1569C1.77643 16.7686 1.15153 15.0997 1.97008 13.8719L3.19882 12.0288C3.7881 11.1448 4.10256 10.1063 4.10256 9.04393V8.2907Z" fill="black"/>
</svg>
