<svg width="20" height="22" viewBox="0 0 20 22" fill="none" xmlns="http://www.w3.org/2000/svg">
<path d="M6.75 4C6.33579 4 6 4.33579 6 4.75C6 5.16421 6.33579 5.5 6.75 5.5H12.75C13.1642 5.5 13.5 5.16421 13.5 4.75C13.5 4.33579 13.1642 4 12.75 4H6.75Z" fill="#6BA814"/>
<path fill-rule="evenodd" clip-rule="evenodd" d="M9.6925 2.70507e-07C7.61994 -1.44518e-05 5.98716 -2.60174e-05 4.71128 0.17337C3.40122 0.351412 2.35609 0.724684 1.53484 1.55484C0.714694 2.38387 0.346919 3.43702 0.1713 4.75741C-2.41995e-05 6.04551 -1.34645e-05 7.69462 2.44544e-07 9.79107V14.889C-1.05439e-05 16.3966 -1.9066e-05 17.5902 0.0960097 18.4888C0.19091 19.3769 0.394473 20.178 0.97584 20.7138C1.44226 21.1437 2.03211 21.4146 2.66165 21.4867C3.44912 21.5768 4.18439 21.2008 4.90868 20.6877C5.64163 20.1685 6.53075 19.3821 7.65254 18.3899L7.68905 18.3576C8.20912 17.8976 8.56122 17.5872 8.85499 17.3724C9.13892 17.1648 9.31227 17.0897 9.45838 17.0603C9.65092 17.0215 9.84908 17.0215 10.0416 17.0603C10.1877 17.0897 10.3611 17.1648 10.645 17.3724C10.9388 17.5872 11.2909 17.8976 11.811 18.3576L11.8475 18.39C12.9693 19.3821 13.8584 20.1686 14.5913 20.6877C15.3156 21.2008 16.0509 21.5768 16.8383 21.4867C17.4679 21.4146 18.0577 21.1437 18.5242 20.7138C19.1055 20.178 19.3091 19.3769 19.404 18.4888C19.5 17.5902 19.5 16.3966 19.5 14.889V9.79104C19.5 7.69462 19.5 6.0455 19.3287 4.75741C19.1531 3.43702 18.7853 2.38387 17.9652 1.55484C17.1439 0.724684 16.0988 0.351412 14.7887 0.17337C13.5128 -2.60174e-05 11.8801 -1.44518e-05 9.8075 2.70507e-07H9.6925ZM2.6012 2.60977C3.09797 2.10762 3.77251 1.81474 4.91328 1.65971C6.07645 1.50163 7.60725 1.5 9.75 1.5C11.8927 1.5 13.4236 1.50163 14.5867 1.65971C15.7275 1.81474 16.402 2.10762 16.8988 2.60977C17.3967 3.11303 17.6879 3.79819 17.8418 4.95518C17.9984 6.13292 18 7.68223 18 9.84752V14.8409C18 16.4072 17.999 17.5202 17.9125 18.3294C17.8239 19.1588 17.6604 19.47 17.5076 19.6108C17.2738 19.8263 16.9798 19.9607 16.6678 19.9964C16.4682 20.0192 16.1335 19.942 15.4583 19.4637C14.7997 18.9972 13.9711 18.2657 12.8047 17.234L12.7786 17.2109C12.2913 16.7799 11.8872 16.4225 11.5304 16.1616C11.1574 15.8888 10.7812 15.6792 10.3378 15.5898C9.94978 15.5117 9.55022 15.5117 9.16218 15.5898C8.71876 15.6792 8.34259 15.8888 7.9696 16.1616C7.61283 16.4225 7.20871 16.7799 6.72146 17.2109L6.69527 17.234C5.52887 18.2657 4.70026 18.9972 4.04165 19.4637C3.36646 19.942 3.03182 20.0192 2.83218 19.9964C2.52019 19.9607 2.22617 19.8263 1.99237 19.6108C1.83963 19.47 1.67614 19.1588 1.58752 18.3294C1.50104 17.5202 1.5 16.4072 1.5 14.8409V9.84752C1.5 7.68223 1.50156 6.13292 1.65821 4.95518C1.81209 3.79819 2.10333 3.11303 2.6012 2.60977Z" fill="#6BA814"/>
</svg>
