<svg width="22" height="22" viewBox="0 0 22 22" fill="none" xmlns="http://www.w3.org/2000/svg">
<path d="M8 11C8 11.5523 7.55228 12 7 12C6.44772 12 6 11.5523 6 11C6 10.4477 6.44772 10 7 10C7.55228 10 8 10.4477 8 11Z" fill="black"/>
<path d="M12 11C12 11.5523 11.5523 12 11 12C10.4477 12 10 11.5523 10 11C10 10.4477 10.4477 10 11 10C11.5523 10 12 10.4477 12 11Z" fill="black"/>
<path d="M16 11C16 11.5523 15.5523 12 15 12C14.4477 12 14 11.5523 14 11C14 10.4477 14.4477 10 15 10C15.5523 10 16 10.4477 16 11Z" fill="black"/>
<path fill-rule="evenodd" clip-rule="evenodd" d="M21.75 11C21.75 5.06294 16.9371 0.25 11 0.25C5.06294 0.25 0.25 5.06294 0.25 11C0.25 12.7183 0.653708 14.3445 1.37213 15.7869C1.47933 16.0021 1.50208 16.2219 1.4526 16.4068L0.856997 18.6328C0.449274 20.1566 1.84337 21.5507 3.3672 21.143L5.59324 20.5474C5.77814 20.4979 5.99791 20.5207 6.21315 20.6279C7.65553 21.3463 9.28169 21.75 11 21.75C16.9371 21.75 21.75 16.9371 21.75 11ZM11 1.75C16.1086 1.75 20.25 5.89137 20.25 11C20.25 16.1086 16.1086 20.25 11 20.25C9.51894 20.25 8.12121 19.9025 6.88191 19.2852C6.38451 19.0375 5.78973 18.9421 5.20553 19.0984L2.97949 19.694C2.57066 19.8034 2.19663 19.4293 2.30602 19.0205L2.90163 16.7945C3.05794 16.2103 2.96254 15.6155 2.7148 15.1181C2.09752 13.8788 1.75 12.4811 1.75 11C1.75 5.89137 5.89137 1.75 11 1.75Z" fill="black"/>
</svg>
