<svg width="22" height="23" viewBox="0 0 22 23" fill="none" xmlns="http://www.w3.org/2000/svg">
<path d="M11.8462 0.841463C11.8462 0.376736 11.4673 0 11 0C10.5327 0 10.1538 0.376736 10.1538 0.841463V5.32927C10.1538 5.79399 10.5327 6.17073 11 6.17073C11.4673 6.17073 11.8462 5.79399 11.8462 5.32927V0.841463Z" fill="black"/>
<path d="M7.3806 3.53053C7.81107 3.34966 8.0126 2.85601 7.83072 2.42792C7.64885 1.99984 7.15244 1.79943 6.72196 1.9803C2.77349 3.6393 0 7.52707 0 12.061C0 18.1024 4.92487 23 11 23C17.0751 23 22 18.1024 22 12.061C22 7.52707 19.2265 3.6393 15.278 1.9803C14.8476 1.79943 14.3512 1.99984 14.1693 2.42792C13.9874 2.85601 14.1889 3.34966 14.6194 3.53053C17.9635 4.93561 20.3077 8.22703 20.3077 12.061C20.3077 17.173 16.1405 21.3171 11 21.3171C5.8595 21.3171 1.69231 17.173 1.69231 12.061C1.69231 8.22703 4.03648 4.93561 7.3806 3.53053Z" fill="black"/>
</svg>
