<svg width="38" height="38" viewBox="0 0 38 38" fill="none" xmlns="http://www.w3.org/2000/svg">
<path d="M19.8462 7.84146C19.8462 7.37674 19.4673 7 19 7C18.5327 7 18.1538 7.37674 18.1538 7.84146V12.3293C18.1538 12.794 18.5327 13.1707 19 13.1707C19.4673 13.1707 19.8462 12.794 19.8462 12.3293V7.84146Z" fill="black"/>
<path d="M15.3806 10.5305C15.8111 10.3497 16.0126 9.85601 15.8307 9.42792C15.6488 8.99984 15.1524 8.79943 14.722 8.9803C10.7735 10.6393 8 14.5271 8 19.061C8 25.1024 12.9249 30 19 30C25.0751 30 30 25.1024 30 19.061C30 14.5271 27.2265 10.6393 23.278 8.9803C22.8476 8.79943 22.3512 8.99984 22.1693 9.42792C21.9874 9.85601 22.1889 10.3497 22.6194 10.5305C25.9635 11.9356 28.3077 15.227 28.3077 19.061C28.3077 24.173 24.1405 28.3171 19 28.3171C13.8595 28.3171 9.69231 24.173 9.69231 19.061C9.69231 15.227 12.0365 11.9356 15.3806 10.5305Z" fill="black"/>
</svg>
