<svg width="124" height="36" viewBox="0 0 124 36" fill="none" xmlns="http://www.w3.org/2000/svg">
<path d="M5.2428 9.62139V18.7973H0V0.441406H5.2428L10.4856 9.62139V0.441406H15.7325V18.7973H10.4856L5.2428 9.62139Z" fill="#2C6E04"/>
<path d="M17.043 5.42578H21.9726V12.3403C21.9726 13.6418 22.4268 14.4458 23.3351 14.7522C23.4908 14.7822 23.6485 14.7999 23.8069 14.8051H24.1201C25.0475 14.8051 25.6616 14.26 25.9586 13.1781C25.9952 13.0236 26.013 12.8652 26.0114 12.7063V5.42578H31.0061V18.8765H26.0114V17.0421C24.8211 18.4738 23.4748 19.191 21.9726 19.1937H21.6065C19.4373 19.1937 17.9852 18.1091 17.2504 15.9399C17.12 15.3548 17.0505 14.7578 17.043 14.1584V5.42578Z" fill="#2C6E04"/>
<path d="M32.9317 5.42638V0.578125H38.1745V5.42638H42.0955V9.1236H38.1745V12.715C38.1778 13.3306 38.3804 13.9286 38.7521 14.4193C39.049 14.826 40.1635 15.0985 42.0955 15.1961V18.7998H39.952C38.7053 18.7937 37.4683 18.5807 36.2914 18.1694C34.0462 17.0847 32.9236 14.9155 32.9236 11.6616V9.11953H31.5977V5.42638H32.9317Z" fill="#2C6E04"/>
<path d="M52.3219 5.21879L53.843 5.53198V10.3558H53.054C51.0284 10.3558 49.6998 10.9158 49.068 12.0356C48.6857 12.5847 48.4904 13.565 48.4904 14.9723V18.7996H43.4062V5.42623H48.3887V8.15542L49.1737 6.84168C49.5292 6.33781 50.0009 5.92717 50.549 5.64464C51.0971 5.36211 51.7053 5.21601 52.3219 5.21879Z" fill="#2C6E04"/>
<path d="M55.207 4.11765V0.457031H60.4498V4.11765H55.207ZM60.4498 5.42732V18.8007H55.207V5.42732H60.4498Z" fill="#2C6E04"/>
<path d="M69.0757 0C71.6246 0 73.5647 0.725344 74.896 2.17603C75.8171 3.21094 76.3378 4.54099 76.3644 5.92613H71.6991C71.6453 5.44862 71.4075 5.0109 71.0361 4.70592C70.6823 4.43341 70.0274 4.29919 69.0757 4.29919C67.5708 4.29919 66.7316 4.63134 66.558 5.29567C66.546 5.36746 66.5284 5.43819 66.5051 5.50718C66.5051 6.28539 67.4325 6.84397 69.2872 7.18292C71.8523 7.79573 73.5471 8.39092 74.3714 8.96848C76.1203 9.94465 76.9948 11.3953 76.9948 13.3205C76.9948 15.8097 75.6661 17.5723 73.0088 18.6081C71.8278 18.9968 70.5916 19.1919 69.3482 19.1856C67.4877 19.2354 65.6556 18.7207 64.0932 17.7092C62.7374 16.7059 61.924 15.6213 61.6528 14.4553C61.5021 13.8558 61.431 13.239 61.4413 12.6209H65.8462C66.196 13.532 66.5906 14.1055 67.0339 14.3536C67.656 14.6348 68.3372 14.7604 69.0188 14.7197H69.6451C71.2368 14.6058 72.0313 14.1855 72.0286 13.4588C72.0286 12.6291 70.727 12.0176 68.1239 11.6244C65.8706 11.0984 64.2979 10.5385 63.4058 9.94463C62.7678 9.49988 62.2512 8.90255 61.9031 8.20705C61.555 7.51156 61.3865 6.74002 61.4128 5.96272C61.4128 3.46808 62.671 1.70557 65.1873 0.675179C66.4382 0.240616 67.7515 0.0125736 69.0757 0Z" fill="#2C6E04"/>
<path d="M91.7947 18.7983H86.8651V11.8229C86.8651 10.5213 86.4109 9.71732 85.5026 9.41091C85.3469 9.38112 85.1892 9.36344 85.0308 9.35803H84.7135C83.7861 9.35803 83.176 9.90306 82.8791 10.985C82.8404 11.1392 82.8226 11.2979 82.8262 11.4568V18.778H77.8438V5.42493H82.8262V7.10474C84.0139 5.67032 85.3602 4.95312 86.8651 4.95312H87.2312C89.4004 4.95312 90.8511 6.03775 91.5832 8.20699C91.7168 8.79163 91.7877 9.38883 91.7947 9.98849V18.7983Z" fill="#2C6E04"/>
<path d="M98.6126 19.139C97.7519 19.1343 96.899 18.9745 96.095 18.6672C93.6546 17.4362 92.4344 15.2073 92.4344 11.9805V11.8219C92.416 10.5924 92.7233 9.37999 93.3251 8.30772C94.6104 6.35269 96.2875 5.37381 98.3564 5.37109H99.0397C100.215 5.39579 101.341 5.8435 102.212 6.63198V5.41178H107.455V18.7852H102.184V17.866H102.131C101.152 18.7049 99.9013 19.1577 98.6126 19.139ZM97.9822 12.3466C97.9577 12.9784 98.0473 13.6094 98.2466 14.2094C98.5598 14.9416 99.1902 15.3117 100.134 15.3117C100.307 15.2768 100.482 15.259 100.659 15.2588C101.778 15.0392 102.337 14.0332 102.334 12.2408C102.302 10.923 102.18 10.1719 101.968 9.98754C101.968 9.54013 101.407 9.26355 100.288 9.14967H99.9752C99.6554 9.16071 99.3382 9.21265 99.0316 9.30423C98.332 9.7679 97.9822 10.6424 97.9822 11.9276V12.3466Z" fill="#2C6E04"/>
<path d="M117.639 5.09852C118.499 5.10323 119.352 5.26305 120.156 5.57032C122.597 6.8068 123.817 8.81742 123.817 11.6022V11.7608C123.834 12.9875 123.527 14.197 122.926 15.2669C121.641 17.2219 119.962 18.2008 117.891 18.2035H117.232C116.057 18.1788 114.931 17.7311 114.059 16.9426V22.7386H108.812V16.5155V5.42391H114.067V6.34313H114.12C115.105 5.51737 116.354 5.07533 117.639 5.09852ZM118.269 11.2361C118.258 10.8165 118.168 10.4026 118.005 10.0159C117.693 9.28382 117.064 8.91776 116.117 8.91776C115.944 8.95066 115.769 8.96836 115.593 8.97064C114.476 9.17672 113.917 9.96306 113.917 11.3297C113.95 12.6475 114.072 13.3986 114.283 13.583C114.283 14.0304 114.84 14.307 115.959 14.4209H116.276C116.596 14.4115 116.913 14.3595 117.22 14.2663C117.919 13.8026 118.269 12.9282 118.269 11.6429V11.2361Z" fill="#2C6E04"/>
<path d="M3.52232 27.2863H3.80703C4.34982 27.2718 4.88761 27.3933 5.37141 27.6398C5.85521 27.8863 6.26962 28.25 6.57689 28.6977C6.53079 28.7574 5.98848 29.1397 4.94995 29.8447C4.80768 29.637 4.61623 29.4678 4.39268 29.3521C4.16913 29.2365 3.92041 29.1779 3.66873 29.1817C3.0505 29.1817 2.6153 29.5315 2.35906 30.2351L2.33465 30.5199V30.7232C2.32813 30.8942 2.35573 31.0648 2.41583 31.2251C2.47592 31.3853 2.56731 31.532 2.68467 31.6565C2.80203 31.7811 2.94301 31.881 3.0994 31.9505C3.25578 32.02 3.42443 32.0577 3.59552 32.0614H3.79889C4.03483 32.0409 4.26432 31.9736 4.47386 31.8632C4.6834 31.7529 4.86877 31.6018 5.01909 31.4188C6.02779 32.0885 6.5701 32.4559 6.64603 32.521C6.18194 33.1374 5.53826 33.595 4.80352 33.8307C4.40294 33.9215 3.99402 33.9706 3.58332 33.9771C2.93848 33.9928 2.30132 33.8344 1.73878 33.5188C1.17624 33.2032 0.709094 32.7419 0.386402 32.1834C0.138688 31.7186 0.00617141 31.2011 0 30.6744V30.5768C0.00242037 30.0357 0.142131 29.5041 0.406051 29.0318C0.669971 28.5594 1.04946 28.1618 1.50898 27.8761C2.11133 27.4942 2.80912 27.2898 3.52232 27.2863Z" fill="#EA6230"/>
<path d="M7.25846 27.5898H9.5199V30.7705C9.5199 31.3725 9.72734 31.7426 10.1463 31.885C10.2186 31.8994 10.2921 31.9076 10.3659 31.9094H10.5083C10.9394 31.9094 11.22 31.6572 11.3583 31.1569C11.3761 31.0865 11.3843 31.0139 11.3827 30.9413V27.5898H13.6808V33.7966H11.3827V32.9465C11.1688 33.2434 10.8897 33.4873 10.5667 33.6594C10.2438 33.8314 9.88564 33.9271 9.5199 33.939H9.34907C8.89241 33.959 8.44287 33.8206 8.07666 33.547C7.71045 33.2735 7.45012 32.8817 7.33981 32.4381C7.27887 32.1711 7.24614 31.8985 7.24219 31.6246L7.25846 27.5898Z" fill="#EA6230"/>
<path d="M20.2313 33.76H14.7852V31.8484L17.3882 29.4771H14.7852V27.5898H20.2313V29.4771L17.6282 31.8484H20.2313V33.76Z" fill="#EA6230"/>
<path d="M24.2461 33.7611V25.293H26.6662V33.7611H24.2461Z" fill="#EA6230"/>
<path d="M27.7617 26.985V25.293H30.1818V26.985H27.7617ZM30.1818 27.591V33.7611H27.7617V27.591H30.1818Z" fill="#EA6230"/>
<path d="M34.0661 30.2034V33.7623H31.6257V30.2034H31.0156V28.4992H31.6257C31.6583 27.0838 32.1762 26.1347 33.1795 25.6521C33.7247 25.4616 34.298 25.364 34.8755 25.3633H35.8517V27.0228C34.9609 27.0675 34.4485 27.1895 34.3102 27.3807C34.1407 27.6091 34.0481 27.8853 34.0458 28.1697V28.5073H35.5507V30.2115L34.0661 30.2034Z" fill="#EA6230"/>
<path d="M39.619 27.383C41.3137 27.383 42.3983 28.2629 42.8728 30.0227C42.9617 30.43 43.0027 30.8464 42.9948 31.2632V31.3771H38.5167V31.4015C38.6166 31.698 38.8242 31.9463 39.0983 32.097C39.3066 32.2127 39.5395 32.2769 39.7776 32.2841H39.8589C40.0224 32.2707 40.1807 32.2201 40.3216 32.1362C40.4626 32.0523 40.5826 31.9374 40.6724 31.8001H42.8484V31.8245C42.035 33.2345 41.0195 33.9395 39.802 33.9395C39.3146 33.9713 38.8261 33.8969 38.3703 33.7213C37.9146 33.5457 37.5024 33.2733 37.1623 32.9227C36.5827 32.3259 36.2538 31.5297 36.2431 30.6979C36.2327 30.2615 36.3135 29.8278 36.4802 29.4244C36.6468 29.0211 36.8958 28.6569 37.2111 28.3551C37.5287 28.0425 37.9049 27.7957 38.3181 27.6289C38.7313 27.4621 39.1734 27.3785 39.619 27.383ZM38.5045 29.9495H40.7334V29.9291C40.7334 29.761 40.6114 29.578 40.3673 29.3801C40.1594 29.2695 39.9277 29.2109 39.6922 29.2092C39.0211 29.2092 38.6265 29.4573 38.4923 29.9495H38.5045Z" fill="#EA6230"/>
<path d="M46.598 25.293L46.1262 28.197H44.3121L43.8281 25.293H46.598Z" fill="#EA6230"/>
<path d="M50.1516 27.3086H50.4363C51.3685 27.3261 52.2815 27.5764 53.0923 28.0367C53.0923 28.0773 52.8211 28.5613 52.2788 29.4887L51.4654 29.2569C51.1424 29.1559 50.8071 29.0998 50.4689 29.0901H50.3143C50.2161 29.0806 50.1179 29.1072 50.0378 29.1648C49.9577 29.2224 49.9013 29.3072 49.8791 29.4033C49.8791 29.5375 50.2045 29.6717 50.8471 29.81C51.5039 29.9417 52.1259 30.2091 52.6734 30.595C52.8597 30.757 53.0073 30.9588 53.1052 31.1855C53.203 31.4122 53.2487 31.658 53.2387 31.9047C53.2387 33.0273 52.5758 33.7309 51.2457 34.0075C51.0095 34.0364 50.7719 34.0527 50.534 34.0563H50.3509C49.2333 34.0638 48.1393 33.735 47.2109 33.1127V33.0883C47.7844 32.1894 48.0854 31.7379 48.1098 31.7339H48.1342C48.7631 32.0829 49.469 32.2702 50.1882 32.2789H50.3387C50.7007 32.2789 50.8797 32.1975 50.8797 32.0348C50.8797 31.8721 50.4526 31.6281 49.6025 31.4573C48.667 31.2051 48.0583 30.8539 47.7763 30.4038C47.6093 30.1173 47.5209 29.7918 47.5201 29.4602C47.5201 28.3661 48.183 27.6665 49.5131 27.3533C49.7248 27.3251 49.938 27.3101 50.1516 27.3086Z" fill="#EA6230"/>
<path d="M61.3691 33.9157C60.7745 33.9278 60.196 33.7225 59.7421 33.3381H59.7177V33.7449H57.2773V25.293H59.6974V28.1401C60.099 27.7754 60.6193 27.5687 61.1617 27.5585H61.4748C61.9469 27.5597 62.4104 27.6856 62.8182 27.9234C63.226 28.1613 63.5638 28.5026 63.7973 28.9129C64.074 29.4098 64.2143 29.9711 64.204 30.5398V30.613C64.204 32.1017 63.64 33.1307 62.512 33.7001C62.1465 33.8379 61.7597 33.9108 61.3691 33.9157ZM61.6619 30.7839V30.5886C61.6913 30.3609 61.6623 30.1294 61.5776 29.916C61.493 29.7025 61.3554 29.5141 61.1779 29.3684C61.0367 29.3251 60.8904 29.3005 60.7427 29.2952H60.5963C60.0798 29.3481 59.8235 29.4782 59.8235 29.7019C59.7259 29.7874 59.6689 30.1331 59.6527 30.7432C59.6527 31.5567 59.9089 32.0325 60.4255 32.1342C60.5074 32.1347 60.5891 32.1429 60.6695 32.1586C60.8498 32.1772 61.0312 32.1379 61.1877 32.0465C61.3442 31.9551 61.4675 31.8163 61.5399 31.6502C61.6333 31.3714 61.6747 31.0777 61.6619 30.7839Z" fill="#EA6230"/>
<path d="M65.043 27.5898H67.3166V30.7705C67.3166 31.3725 67.5281 31.7426 67.9471 31.885C68.0194 31.8994 68.0929 31.9076 68.1667 31.9094H68.309C68.7361 31.9094 69.0208 31.6572 69.1591 31.1569C69.1768 31.0865 69.185 31.0139 69.1835 30.9413V27.5898H71.4816V33.7966H69.1835V32.9465C68.9692 33.244 68.6894 33.4882 68.3657 33.6603C68.042 33.8323 67.683 33.9277 67.3166 33.939H67.1498C66.6932 33.959 66.2436 33.8206 65.8774 33.547C65.5112 33.2735 65.2509 32.8817 65.1406 32.4381C65.0796 32.1711 65.0469 31.8985 65.043 31.6246V27.5898Z" fill="#EA6230"/>
<path d="M75.2019 27.3086H75.4866C76.4189 27.3256 77.332 27.5759 78.1426 28.0367C78.1426 28.0773 77.8714 28.5613 77.3291 29.4887L76.5157 29.2569C76.1927 29.1559 75.8574 29.0998 75.5192 29.0901H75.3687C75.1206 29.0901 74.9619 29.1918 74.9335 29.4033C74.9335 29.5375 75.2548 29.6717 75.9015 29.81C76.558 29.9425 77.1798 30.2098 77.7277 30.595C77.9127 30.7579 78.059 30.96 78.1561 31.1865C78.2532 31.4131 78.2986 31.6584 78.289 31.9047C78.289 33.0273 77.626 33.7309 76.3001 34.0075C76.0625 34.0363 75.8235 34.0526 75.5842 34.0563H75.4134C74.2957 34.0643 73.2016 33.7355 72.2734 33.1127V33.0883C72.8429 32.1894 73.1438 31.7379 73.1682 31.7339H73.1926C73.8216 32.0829 74.5274 32.2702 75.2467 32.2789H75.4134C75.7713 32.2789 75.9503 32.1975 75.9503 32.0348C75.9503 31.8111 75.5436 31.6281 74.6732 31.4573C73.7377 31.2051 73.1289 30.8539 72.8469 30.4038C72.681 30.1171 72.594 29.7915 72.5947 29.4602C72.5947 28.3661 73.2577 27.6665 74.5837 27.3533C74.7887 27.3259 74.9951 27.311 75.2019 27.3086Z" fill="#EA6230"/>
<path d="M81.1077 33.6543L78.5859 27.5898H81.2704L82.214 30.7339L83.2064 27.5898H85.8421L83.9548 32.7066C83.4125 34.2033 82.5272 35.2039 81.2988 35.7083C80.904 35.8491 80.4948 35.946 80.0786 35.997H79.4808V34.3335C79.9463 34.3518 80.4062 34.2268 80.7986 33.9756C80.9103 33.8772 81.0137 33.7697 81.1077 33.6543Z" fill="#EA6230"/>
<path d="M89.0371 32.0664V33.7625H86.6211V32.0664H89.0371Z" fill="#EA6230"/>
</svg>
